<svg width="980" height="297" viewBox="0 0 980 297" fill="none" xmlns="http://www.w3.org/2000/svg">
<g clip-path="url(#clip0_922_285)">
<path d="M133.437 214.404C133.141 214.108 132.648 214.108 132.325 214.404C122.063 224.426 108.535 229.916 94.1492 229.916C77.3278 229.916 61.8858 222.512 51.2158 209.139C34.7745 188.559 35.6754 158.224 53.1443 138.517C66.8126 123.132 87.2517 116.656 108.352 121.794C117.446 124.004 125.61 129.03 132.311 135.575C132.606 135.871 133.099 135.871 133.423 135.575L160.816 108.379C161.111 108.084 161.139 107.563 160.816 107.267C157.437 103.734 138.603 85.3784 107.62 81.0006C107.536 81.0006 103.313 80.4516 101.216 80.2968C98.9774 80.1278 96.7815 80.0293 94.107 80.0293C69.0086 80.0293 45.3459 89.7421 27.5392 107.422C-7.87734 142.543 -9.65098 201.327 23.5977 238.432C41.5734 258.477 67.2631 269.964 94.107 269.964C119.149 269.964 142.699 260.321 160.478 242.768C160.801 242.444 160.801 241.923 160.478 241.599L133.395 214.432H133.423L133.437 214.404Z" fill="#012B64"/>
<path d="M850.705 270.005C850.269 270.005 849.889 269.653 849.889 269.188V174.988C849.889 144.681 825.297 120.048 795.117 120.048C794.188 120.048 793.259 120.047 792.344 120.132C763.163 121.582 740.317 146.427 740.317 176.705V269.216C740.317 269.653 739.965 270.033 739.501 270.033H701.17C700.734 270.033 700.354 269.681 700.354 269.216V80.8022C700.354 80.3658 700.706 79.9858 701.17 79.9858H739.501C739.937 79.9858 740.317 80.3377 740.317 80.8022V96.779C740.317 97.1028 740.669 97.2999 740.937 97.1028C756.787 86.0246 775.762 79.9717 795.117 79.9717H796.806C848.101 80.9007 889.838 124.51 889.838 177.254V269.202C889.838 269.639 889.486 270.019 889.021 270.019H850.691L850.719 269.99L850.705 270.005Z" fill="#012B64"/>
<path d="M380.901 269.188L380.986 80.7881C380.986 80.3517 381.338 79.9717 381.802 79.9717H420.133C420.569 79.9717 420.949 80.3236 420.949 80.7881V269.188C420.949 269.624 420.597 270.005 420.133 270.005H381.718C381.281 270.005 380.901 269.653 380.901 269.188Z" fill="#BE0D42"/>
<path d="M630.253 269.188L630.338 80.7881C630.338 80.3517 630.69 79.9717 631.154 79.9717H669.485C669.921 79.9717 670.301 80.3236 670.301 80.7881V269.188C670.301 269.624 669.949 270.005 669.485 270.005H631.07C630.633 270.005 630.253 269.653 630.253 269.188Z" fill="#012B64"/>
<path d="M451.003 269.188V230.858C451.003 230.253 451.214 229.69 451.608 229.253L547.005 120.709C547.216 120.442 547.061 120.034 546.709 120.034H451.777C451.341 120.034 450.961 119.682 450.961 119.217V80.7744C450.961 80.3381 451.313 79.958 451.777 79.958H599.553C599.989 79.958 600.369 80.3099 600.369 80.7744V119.105C600.369 119.71 600.158 120.273 599.764 120.709L503.903 229.225C503.692 229.493 503.846 229.901 504.198 229.901H599.538C599.975 229.901 600.355 230.253 600.355 230.717V269.16C600.355 269.597 600.003 269.977 599.538 269.977H451.805C451.369 269.977 450.989 269.625 450.989 269.16V269.188H451.003Z" fill="#012B64"/>
<path d="M350.862 177.128C350.862 125.313 309.857 81.788 259.464 80.0143C258.351 79.9862 257.225 79.958 256.113 79.958C229.072 79.958 203.242 91.6415 185.238 111.982C167.262 132.294 158.831 159.49 162.068 186.63C167.051 228.226 199.371 261.995 240.671 268.71C245.795 269.554 250.989 269.963 256.113 269.963C267.825 269.963 279.199 267.781 290.038 263.544C290.657 263.305 291.065 262.671 291.065 261.995V217.992C291.065 217.668 290.713 217.471 290.446 217.697C280.733 225.594 268.754 229.887 256.085 229.887C253.777 229.887 251.426 229.746 249.117 229.451C224.399 226.368 204.438 206.112 201.665 181.295C199.892 165.445 204.72 150.2 215.249 138.361C230.55 121.216 255.522 114.811 278.059 124.581C298.484 133.463 311.026 154.395 311.026 176.72V182.027H311.054V269.118C311.054 269.554 311.406 269.935 311.87 269.935H350.018C350.454 269.935 350.834 269.583 350.834 269.118V177.072L350.862 177.128Z" fill="#BE0D42"/>
<path d="M790.698 -0.0263672L979.098 0.0580919C979.534 0.0580919 979.914 0.410004 979.914 0.874529V39.2049C979.914 39.6412 979.563 40.0213 979.098 40.0213H790.698C790.262 40.0213 789.882 39.6694 789.882 39.2049V0.79007C789.882 0.353698 790.233 -0.0263672 790.698 -0.0263672Z" fill="#BE0D42"/>
</g>
<defs>
<clipPath id="clip0_922_285">
<rect width="980" height="297" fill="white"/>
</clipPath>
</defs>
</svg>
