<svg width="980" height="297" viewBox="0 0 980 297" fill="none" xmlns="http://www.w3.org/2000/svg">
<g clip-path="url(#clip0_922_310)">
<path d="M133.437 214.404C133.141 214.108 132.648 214.108 132.325 214.404C122.063 224.426 108.535 229.916 94.1492 229.916C77.3278 229.916 61.8858 222.512 51.2158 209.139C34.7745 188.559 35.6754 158.224 53.1443 138.517C66.8126 123.132 87.2517 116.656 108.352 121.794C117.446 124.004 125.61 129.03 132.311 135.575C132.606 135.871 133.099 135.871 133.423 135.575L160.816 108.379C161.111 108.084 161.139 107.563 160.816 107.267C157.437 103.734 138.603 85.3784 107.62 81.0006C107.536 81.0006 103.313 80.4516 101.216 80.2968C98.9774 80.1278 96.7815 80.0293 94.107 80.0293C69.0086 80.0293 45.3459 89.7421 27.5392 107.422C-7.87734 142.543 -9.65098 201.327 23.5977 238.432C41.5734 258.477 67.2631 269.964 94.107 269.964C119.149 269.964 142.699 260.321 160.478 242.768C160.801 242.444 160.801 241.923 160.478 241.599L133.395 214.432H133.423L133.437 214.404Z" fill="white"/>
<path d="M850.705 270.004C850.269 270.004 849.889 269.652 849.889 269.187V174.987C849.889 144.68 825.297 120.047 795.117 120.047C794.188 120.047 793.259 120.047 792.344 120.131C763.163 121.581 740.317 146.426 740.317 176.704V269.215C740.317 269.652 739.965 270.032 739.501 270.032H701.17C700.734 270.032 700.354 269.68 700.354 269.215V80.8012C700.354 80.3648 700.706 79.9848 701.17 79.9848H739.501C739.937 79.9848 740.317 80.3367 740.317 80.8012V96.778C740.317 97.1018 740.669 97.2989 740.937 97.1018C756.787 86.0236 775.762 79.9707 795.117 79.9707H796.806C848.101 80.8998 889.838 124.509 889.838 177.253V269.201C889.838 269.638 889.486 270.018 889.021 270.018H850.691L850.719 269.989L850.705 270.004Z" fill="white"/>
<path d="M380.901 269.187L380.986 80.7871C380.986 80.3508 381.338 79.9707 381.802 79.9707H420.133C420.569 79.9707 420.949 80.3226 420.949 80.7871V269.187C420.949 269.623 420.597 270.004 420.133 270.004H381.718C381.281 270.004 380.901 269.652 380.901 269.187Z" fill="white"/>
<path d="M630.253 269.187L630.338 80.7871C630.338 80.3508 630.69 79.9707 631.154 79.9707H669.485C669.921 79.9707 670.301 80.3226 670.301 80.7871V269.187C670.301 269.623 669.949 270.004 669.485 270.004H631.07C630.633 270.004 630.253 269.652 630.253 269.187Z" fill="white"/>
<path d="M451.003 269.188V230.857C451.003 230.252 451.214 229.689 451.608 229.252L547.005 120.709C547.216 120.441 547.061 120.033 546.709 120.033H451.777C451.341 120.033 450.961 119.681 450.961 119.216V80.7735C450.961 80.3371 451.313 79.957 451.777 79.957H599.553C599.989 79.957 600.369 80.3089 600.369 80.7735V119.104C600.369 119.709 600.158 120.272 599.764 120.709L503.903 229.224C503.692 229.492 503.846 229.9 504.198 229.9H599.538C599.975 229.9 600.355 230.252 600.355 230.716V269.159C600.355 269.596 600.003 269.976 599.538 269.976H451.805C451.369 269.976 450.989 269.624 450.989 269.159V269.188H451.003Z" fill="white"/>
<path d="M350.862 177.127C350.862 125.312 309.857 81.787 259.464 80.0133C258.351 79.9852 257.225 79.957 256.113 79.957C229.072 79.957 203.242 91.6405 185.238 111.981C167.262 132.293 158.831 159.489 162.068 186.629C167.051 228.225 199.371 261.994 240.671 268.709C245.795 269.554 250.989 269.962 256.113 269.962C267.825 269.962 279.199 267.78 290.038 263.543C290.657 263.304 291.065 262.67 291.065 261.994V217.991C291.065 217.668 290.713 217.47 290.446 217.696C280.733 225.593 268.754 229.886 256.085 229.886C253.777 229.886 251.426 229.745 249.117 229.45C224.399 226.367 204.438 206.111 201.665 181.294C199.892 165.444 204.72 150.199 215.249 138.36C230.55 121.215 255.522 114.81 278.059 124.58C298.484 133.462 311.026 154.394 311.026 176.719V182.026H311.054V269.117C311.054 269.554 311.406 269.934 311.87 269.934H350.018C350.454 269.934 350.834 269.582 350.834 269.117V177.071L350.862 177.127Z" fill="white"/>
<path d="M790.698 -0.0273438L979.098 0.0571153C979.534 0.0571153 979.914 0.409028 979.914 0.873553V39.2039C979.914 39.6403 979.563 40.0203 979.098 40.0203H790.698C790.262 40.0203 789.882 39.6684 789.882 39.2039V0.789094C789.882 0.352722 790.233 -0.0273438 790.698 -0.0273438Z" fill="white"/>
</g>
<defs>
<clipPath id="clip0_922_310">
<rect width="980" height="297" fill="white"/>
</clipPath>
</defs>
</svg>
